<?xml version="1.0" encoding="utf-8"?>
<!-- Generator: Adobe Illustrator 14.0.0, SVG Export Plug-In . SVG Version: 6.00 Build 43363)  -->
<!DOCTYPE svg PUBLIC "-//W3C//DTD SVG 1.1//EN" "http://www.w3.org/Graphics/SVG/1.1/DTD/svg11.dtd">
<svg version="1.1" id="Layer_1" xmlns="http://www.w3.org/2000/svg" xmlns:xlink="http://www.w3.org/1999/xlink" x="0px" y="0px"
	 width="500px" height="179.5px" viewBox="0 0 500 179.5" enable-background="new 0 0 500 179.5" xml:space="preserve">
<g>
	<rect id="XMLID_582_" fill="#003087" width="500" height="179.5"/>
	<g>
		<path fill="#FFFFFF" d="M75.01,43.1c0.929,0,1.725,0.33,2.386,0.991c0.661,0.661,0.992,1.457,0.992,2.387v45.312
			c0,0.931-0.331,1.715-0.992,2.35c-0.661,0.636-1.458,0.955-2.386,0.955c-0.932,0-1.715-0.319-2.351-0.955
			c-0.638-0.635-0.955-1.419-0.955-2.35V72.254H43.87v19.535c0,0.931-0.33,1.715-0.99,2.35c-0.663,0.636-1.458,0.955-2.388,0.955
			c-0.93,0-1.714-0.319-2.35-0.955c-0.636-0.635-0.954-1.419-0.954-2.35V46.478c0-0.93,0.317-1.726,0.954-2.387
			c0.636-0.661,1.42-0.991,2.35-0.991c0.93,0,1.726,0.33,2.388,0.991c0.66,0.661,0.99,1.457,0.99,2.387v19.535h27.834V46.478
			c0-0.93,0.317-1.726,0.955-2.387C73.295,43.429,74.078,43.1,75.01,43.1z"/>
		<path fill="#FFFFFF" d="M106.809,56.539c5.679,0,10.232,1.788,13.659,5.361c3.427,3.624,5.142,8.324,5.142,14.101
			c0,5.777-1.715,10.478-5.142,14.1c-3.427,3.575-7.98,5.361-13.659,5.361c-5.729,0-10.282-1.786-13.66-5.361
			c-3.427-3.573-5.141-8.273-5.141-14.1c0-5.826,1.714-10.526,5.141-14.101C96.526,58.327,101.08,56.539,106.809,56.539z
			 M98.62,86.318c1.15,1.053,2.448,1.825,3.892,2.313c1.444,0.49,2.864,0.735,4.26,0.735c1.396,0,2.815-0.245,4.26-0.735
			c1.443-0.488,2.754-1.248,3.928-2.276c2.644-2.399,3.966-5.875,3.966-10.429c0-4.406-1.322-7.833-3.966-10.281
			c-2.202-2.007-4.92-3.011-8.151-3.011c-5.288,0-8.96,2.375-11.016,7.123c-0.735,1.715-1.103,3.783-1.103,6.206
			c0,2.424,0.367,4.492,1.103,6.206C96.526,83.883,97.47,85.266,98.62,86.318z"/>
		<path fill="#FFFFFF" d="M136.478,41.704c0.636-0.636,1.432-0.954,2.386-0.954c0.955,0,1.75,0.318,2.387,0.954
			c0.636,0.637,0.955,1.445,0.955,2.424v47.662c0,0.931-0.319,1.715-0.955,2.35c-0.637,0.636-1.432,0.955-2.387,0.955
			c-0.954,0-1.75-0.319-2.386-0.955c-0.639-0.635-0.955-1.419-0.955-2.35V44.127C135.522,43.148,135.839,42.34,136.478,41.704z"/>
		<path fill="#FFFFFF" d="M162.033,45.889c0,1.029-0.366,1.91-1.102,2.645c-0.734,0.735-1.616,1.102-2.644,1.102h-0.441
			c-1.028,0-1.909-0.367-2.644-1.102c-0.734-0.734-1.102-1.615-1.102-2.645v-0.292c0-1.029,0.367-1.91,1.102-2.644
			c0.735-0.735,1.616-1.102,2.644-1.102h0.441c1.028,0,1.909,0.367,2.644,1.102c0.735,0.734,1.102,1.615,1.102,2.644V45.889z
			 M155.644,57.86c0.636-0.636,1.434-0.955,2.387-0.955c0.955,0,1.75,0.319,2.387,0.955c0.635,0.637,0.955,1.445,0.955,2.424v31.504
			c0,0.931-0.32,1.715-0.955,2.35c-0.637,0.636-1.432,0.955-2.387,0.955c-0.954,0-1.751-0.319-2.387-0.955
			c-0.637-0.635-0.955-1.419-0.955-2.35V60.285C154.689,59.305,155.007,58.498,155.644,57.86z"/>
		<path fill="#FFFFFF" d="M201.322,89.88c-3.624,3.721-7.81,5.581-12.558,5.581c-4.7,0-8.764-1.664-12.191-4.994
			c-3.721-3.672-5.581-8.493-5.581-14.467c0-5.875,1.859-10.673,5.581-14.394c3.379-3.379,7.441-5.068,12.191-5.068
			c4.748,0,8.934,1.861,12.558,5.582V44.127c0-0.979,0.318-1.787,0.955-2.424c0.636-0.636,1.432-0.954,2.387-0.954
			c0.954,0,1.75,0.318,2.386,0.954c0.636,0.637,0.957,1.445,0.957,2.424v47.662c0,0.931-0.32,1.715-0.957,2.35
			c-0.636,0.636-1.432,0.955-2.386,0.955c-0.955,0-1.751-0.319-2.387-0.955c-0.637-0.635-0.955-1.419-0.955-2.35V89.88z
			 M201.322,68.29c-3.33-3.672-7.197-5.508-11.603-5.508c-5.581,0-9.279,2.497-11.089,7.49c-0.638,1.665-0.956,3.575-0.956,5.729
			c0,4.211,1.149,7.516,3.452,9.914c2.104,2.203,4.969,3.305,8.593,3.305c4.406,0,8.272-1.836,11.603-5.508V68.29z"/>
		<path fill="#FFFFFF" d="M221.004,59.182c4.113-1.763,8.372-2.644,12.778-2.644c4.994,0,8.862,1.518,11.604,4.553
			c2.448,2.644,3.672,5.949,3.672,9.915v20.783c0,0.931-0.33,1.715-0.991,2.35c-0.661,0.636-1.457,0.955-2.387,0.955
			s-1.714-0.319-2.35-0.955c-0.637-0.635-0.955-1.419-0.955-2.35V89.88c-1.322,1.371-3.097,2.644-5.324,3.819
			c-2.229,1.175-5.056,1.762-8.483,1.762c-3.378,0-6.194-0.978-8.445-2.937c-2.35-2.057-3.524-4.749-3.524-8.079
			c0-3.622,1.37-6.461,4.111-8.519c2.986-2.251,7.246-3.378,12.779-3.378h8.886v-0.587c0-3.28-0.807-5.619-2.423-7.014
			s-4.089-2.093-7.418-2.093c-2.84,0-6.096,0.588-9.768,1.763c-0.392,0.098-0.832,0.146-1.321,0.146
			c-0.49,0-1.004-0.257-1.543-0.771c-0.538-0.514-0.808-1.309-0.808-2.386S219.73,59.721,221.004,59.182z M223.281,83.711
			c0,3.917,2.595,5.875,7.785,5.875c2.3,0,4.441-0.562,6.426-1.689c1.982-1.126,3.61-2.397,4.883-3.819v-6.169h-8.005
			c-3.476,0-6.194,0.441-8.152,1.322C224.26,80.112,223.281,81.606,223.281,83.711z"/>
		<path fill="#FFFFFF" d="M290.478,57.897c0.636,0.661,0.956,1.347,0.956,2.056c0,0.71-0.074,1.237-0.221,1.579l-20.049,48.177
			c-0.637,1.517-1.665,2.276-3.084,2.276c-0.882,0-1.628-0.318-2.24-0.954c-0.613-0.637-0.918-1.274-0.918-1.91
			c0-0.637,0.073-1.151,0.22-1.542l4.774-12.264l-13.807-33.636c-0.197-0.489-0.294-1.076-0.294-1.763
			c0-0.685,0.317-1.358,0.955-2.019c0.636-0.661,1.346-0.992,2.13-0.992c1.615,0,2.717,0.686,3.304,2.057l11.31,28.054l11.53-27.907
			c0.636-1.469,1.664-2.204,3.084-2.204C289.058,56.905,289.842,57.236,290.478,57.897z"/>
		<path fill="#FFFFFF" d="M332.596,44.384c0.612,0.613,0.918,1.359,0.918,2.24s-0.306,1.615-0.918,2.203
			c-0.612,0.588-1.358,0.881-2.239,0.881h-14.909v42.081c0,0.931-0.33,1.715-0.99,2.35c-0.661,0.636-1.458,0.955-2.388,0.955
			c-0.93,0-1.714-0.319-2.35-0.955c-0.636-0.635-0.954-1.419-0.954-2.35V49.708h-14.981c-0.882,0-1.616-0.293-2.204-0.881
			c-0.587-0.588-0.881-1.322-0.881-2.203s0.294-1.627,0.881-2.24c0.588-0.612,1.322-0.918,2.204-0.918h36.572
			C331.237,43.466,331.983,43.772,332.596,44.384z"/>
		<path fill="#FFFFFF" d="M335.938,59.182c4.113-1.763,8.372-2.644,12.778-2.644c4.994,0,8.862,1.518,11.604,4.553
			c2.448,2.644,3.672,5.949,3.672,9.915v20.783c0,0.931-0.33,1.715-0.991,2.35c-0.661,0.636-1.458,0.955-2.387,0.955
			s-1.714-0.319-2.35-0.955c-0.638-0.635-0.955-1.419-0.955-2.35V89.88c-1.322,1.371-3.098,2.644-5.324,3.819
			c-2.229,1.175-5.056,1.762-8.483,1.762c-3.378,0-6.194-0.978-8.445-2.937c-2.35-2.057-3.525-4.749-3.525-8.079
			c0-3.622,1.37-6.461,4.112-8.519c2.986-2.251,7.246-3.378,12.779-3.378h8.886v-0.587c0-3.28-0.807-5.619-2.423-7.014
			c-1.616-1.395-4.089-2.093-7.418-2.093c-2.84,0-6.096,0.588-9.768,1.763c-0.392,0.098-0.832,0.146-1.32,0.146
			c-0.49,0-1.004-0.257-1.543-0.771c-0.538-0.514-0.808-1.309-0.808-2.386S334.663,59.721,335.938,59.182z M338.215,83.711
			c0,3.917,2.595,5.875,7.785,5.875c2.3,0,4.442-0.562,6.426-1.689c1.981-1.126,3.609-2.397,4.883-3.819v-6.169h-8.005
			c-3.477,0-6.194,0.441-8.152,1.322C339.193,80.112,338.215,81.606,338.215,83.711z"/>
		<path fill="#FFFFFF" d="M404.749,89.586c0.539,0.637,0.808,1.359,0.808,2.167c0,0.808-0.282,1.567-0.844,2.276
			c-0.564,0.71-1.396,1.065-2.497,1.065s-1.971-0.44-2.607-1.322l-10.428-12.485l-9.842,12.338c-0.734,0.98-1.64,1.469-2.717,1.469
			s-1.897-0.306-2.46-0.918c-0.563-0.611-0.845-1.358-0.845-2.24c0-0.881,0.245-1.64,0.735-2.276l11.383-13.44l-11.383-13.88
			c-0.539-0.685-0.808-1.469-0.808-2.35c0-0.881,0.318-1.616,0.955-2.203c0.636-0.588,1.479-0.882,2.534-0.882
			c1.052,0,1.872,0.417,2.46,1.249l10.28,12.705l10.209-12.705c0.587-0.832,1.406-1.249,2.46-1.249c1.052,0,1.896,0.307,2.534,0.918
			c0.635,0.613,0.954,1.322,0.954,2.13c0,0.808-0.246,1.531-0.734,2.167l-11.604,13.659L404.749,89.586z"/>
		<path fill="#FFFFFF" d="M422.742,45.889c0,1.029-0.367,1.91-1.101,2.645c-0.735,0.735-1.616,1.102-2.644,1.102h-0.441
			c-1.028,0-1.909-0.367-2.644-1.102c-0.735-0.734-1.101-1.615-1.101-2.645v-0.292c0-1.029,0.366-1.91,1.101-2.644
			c0.735-0.735,1.616-1.102,2.644-1.102h0.441c1.028,0,1.909,0.367,2.644,1.102c0.734,0.734,1.101,1.615,1.101,2.644V45.889z
			 M416.353,57.86c0.636-0.636,1.432-0.955,2.386-0.955c0.957,0,1.75,0.319,2.389,0.955c0.635,0.637,0.954,1.445,0.954,2.424v31.504
			c0,0.931-0.319,1.715-0.954,2.35c-0.639,0.636-1.432,0.955-2.389,0.955c-0.954,0-1.75-0.319-2.386-0.955
			c-0.637-0.635-0.955-1.419-0.955-2.35V60.285C415.397,59.305,415.716,58.498,416.353,57.86z"/>
		<path fill="#FFFFFF" d="M445.874,89.292c5.434,0,8.152-1.737,8.152-5.214c0-1.076-0.541-1.897-1.616-2.46
			c-1.077-0.562-2.436-1.065-4.076-1.506c-1.64-0.44-3.414-0.892-5.324-1.358c-1.91-0.465-3.684-1.113-5.324-1.946
			c-1.643-0.832-3-1.921-4.076-3.268c-1.078-1.347-1.616-2.999-1.616-4.958c0-1.957,0.294-3.646,0.881-5.067
			c0.587-1.42,1.469-2.644,2.644-3.672c2.595-2.203,6.192-3.305,10.795-3.305c3.672,0,7.222,0.613,10.65,1.836
			c0.684,0.246,1.211,0.637,1.578,1.175c0.368,0.539,0.551,1.139,0.551,1.8c0,0.66-0.282,1.285-0.845,1.872
			c-0.562,0.588-1.114,0.882-1.652,0.882c-0.539,0-1.2-0.122-1.982-0.368c-2.35-0.734-4.921-1.101-7.712-1.101
			c-2.79,0-4.908,0.49-6.352,1.469c-1.445,0.979-2.167,2.154-2.167,3.525s0.551,2.386,1.653,3.047
			c1.101,0.661,2.46,1.212,4.076,1.653c1.615,0.44,3.39,0.881,5.324,1.322c1.934,0.44,3.708,1.053,5.324,1.836
			c3.819,1.958,5.728,4.994,5.728,9.106c0,3.134-1.174,5.68-3.524,7.638c-2.547,2.155-6.096,3.231-10.65,3.231
			c-4.945,0-9.4-1.101-13.366-3.304c-0.832-0.588-1.248-1.322-1.248-2.204c0-0.881,0.269-1.627,0.808-2.24
			c0.538-0.611,1.126-0.918,1.762-0.918s1.396,0.197,2.277,0.588C439.386,88.657,442.496,89.292,445.874,89.292z"/>
		<path fill="#FFFFFF" d="M100.518,125.17c1.293-1.952,3.097-2.928,5.41-2.928c1.145,0,2.185,0.34,3.119,1.018
			c0.764,0.531,1.347,1.285,1.75,2.26c0.595-0.934,1.178-1.591,1.751-1.974c1.208-0.869,2.577-1.304,4.104-1.304
			c1.719,0,3.065,0.658,4.042,1.973c0.849,1.125,1.273,2.504,1.273,4.137v9.166c0,0.403-0.143,0.744-0.43,1.019
			c-0.286,0.275-0.631,0.414-1.033,0.414c-0.404,0-0.744-0.139-1.019-0.414c-0.277-0.275-0.414-0.616-0.414-1.019v-8.592
			c0-1.337-0.239-2.339-0.717-3.007c-0.477-0.669-1.32-1.003-2.529-1.003c-1.867,0-3.395,1.019-4.583,3.055v9.547
			c0,0.403-0.144,0.744-0.431,1.019c-0.285,0.275-0.631,0.414-1.034,0.414s-0.743-0.139-1.018-0.414
			c-0.276-0.275-0.414-0.616-0.414-1.019v-8.592c0-1.337-0.238-2.339-0.716-3.007c-0.479-0.669-1.321-1.003-2.529-1.003
			c-1.867,0-3.395,1.019-4.583,3.055v9.547c0,0.403-0.143,0.744-0.43,1.019c-0.287,0.275-0.631,0.414-1.034,0.414
			c-0.403,0-0.742-0.139-1.019-0.414s-0.414-0.616-0.414-1.019v-13.653c0-0.402,0.137-0.747,0.414-1.034
			c0.276-0.287,0.615-0.429,1.019-0.429c0.402,0,0.747,0.142,1.034,0.429c0.287,0.287,0.43,0.631,0.43,1.034V125.17z"/>
		<path fill="#FFFFFF" d="M127.472,123.388c1.781-0.764,3.628-1.146,5.537-1.146c2.163,0,3.839,0.658,5.028,1.973
			c1.061,1.146,1.591,2.578,1.591,4.296v9.006c0,0.403-0.144,0.744-0.43,1.019c-0.286,0.275-0.631,0.414-1.033,0.414
			c-0.404,0-0.743-0.139-1.019-0.414c-0.277-0.275-0.415-0.616-0.415-1.019v-0.827c-0.573,0.594-1.342,1.145-2.307,1.654
			c-0.966,0.509-2.191,0.764-3.675,0.764c-1.464,0-2.685-0.425-3.66-1.273c-1.019-0.89-1.528-2.057-1.528-3.5
			c0-1.571,0.595-2.801,1.782-3.692c1.295-0.976,3.14-1.463,5.538-1.463h3.85v-0.254c0-1.421-0.35-2.435-1.051-3.04
			c-0.699-0.605-1.771-0.907-3.213-0.907c-1.231,0-2.642,0.255-4.234,0.764c-0.17,0.043-0.361,0.063-0.571,0.063
			c-0.213,0-0.436-0.111-0.669-0.333c-0.233-0.224-0.35-0.568-0.35-1.034C126.645,123.971,126.92,123.623,127.472,123.388z
			 M128.458,134.017c0,1.699,1.125,2.546,3.373,2.546c0.997,0,1.926-0.244,2.784-0.731c0.86-0.488,1.565-1.039,2.117-1.654v-2.674
			h-3.469c-1.507,0-2.684,0.191-3.532,0.573C128.882,132.458,128.458,133.104,128.458,134.017z"/>
		<path fill="#FFFFFF" d="M157.99,136.69c0.212,0.276,0.318,0.594,0.318,0.955c0,0.361-0.139,0.668-0.414,0.923
			c-0.276,0.255-0.583,0.381-0.923,0.381c-0.509,0-0.944-0.201-1.305-0.605l-5.474-7.447l-2.77,2.515v4.104
			c0,0.403-0.143,0.744-0.429,1.019s-0.632,0.414-1.034,0.414c-0.404,0-0.744-0.139-1.019-0.414
			c-0.276-0.275-0.414-0.616-0.414-1.019v-20.654c0-0.402,0.137-0.748,0.414-1.034c0.275-0.287,0.614-0.43,1.019-0.43
			c0.402,0,0.748,0.144,1.034,0.43c0.286,0.286,0.429,0.631,0.429,1.034v13.016l7.575-7.001c0.339-0.275,0.721-0.414,1.146-0.414
			c0.423,0,0.731,0.154,0.923,0.461s0.287,0.568,0.287,0.779c0,0.467-0.182,0.881-0.543,1.242l-4.581,4.104L157.99,136.69z"/>
		<path fill="#FFFFFF" d="M165.214,117.628c0,0.446-0.159,0.827-0.477,1.146c-0.318,0.318-0.701,0.477-1.145,0.477H163.4
			c-0.446,0-0.827-0.159-1.146-0.477c-0.318-0.319-0.477-0.7-0.477-1.146v-0.127c0-0.446,0.159-0.828,0.477-1.146
			c0.319-0.318,0.701-0.477,1.146-0.477h0.191c0.444,0,0.827,0.159,1.145,0.477s0.477,0.7,0.477,1.146V117.628z M162.445,122.815
			c0.276-0.276,0.62-0.414,1.034-0.414c0.413,0,0.757,0.138,1.035,0.414c0.274,0.276,0.413,0.625,0.413,1.049v13.653
			c0,0.403-0.139,0.744-0.413,1.019c-0.278,0.275-0.622,0.414-1.035,0.414c-0.414,0-0.758-0.139-1.034-0.414
			s-0.414-0.616-0.414-1.019v-13.653C162.032,123.44,162.169,123.092,162.445,122.815z"/>
		<path fill="#FFFFFF" d="M178.198,124.916c-1.867,0-3.607,1.019-5.22,3.055v9.547c0,0.403-0.143,0.744-0.429,1.019
			c-0.287,0.275-0.631,0.414-1.036,0.414c-0.402,0-0.742-0.139-1.018-0.414c-0.275-0.275-0.414-0.616-0.414-1.019v-13.653
			c0-0.424,0.139-0.773,0.414-1.049c0.276-0.276,0.616-0.414,1.018-0.414c0.404,0,0.749,0.138,1.036,0.414
			c0.287,0.276,0.429,0.625,0.429,1.049v1.306c0.849-0.892,1.58-1.517,2.195-1.878c1.21-0.701,2.36-1.05,3.453-1.05
			c1.093,0,1.989,0.164,2.688,0.493c0.7,0.33,1.295,0.779,1.783,1.353c0.997,1.167,1.496,2.631,1.496,4.392v9.038
			c0,0.403-0.144,0.744-0.429,1.019c-0.287,0.275-0.632,0.414-1.035,0.414c-0.402,0-0.743-0.139-1.019-0.414
			c-0.274-0.275-0.414-0.616-0.414-1.019v-8.72c0-1.209-0.27-2.159-0.811-2.848C180.345,125.261,179.448,124.916,178.198,124.916z"
			/>
		<path fill="#FFFFFF" d="M201.619,124.661v-0.796c0-0.402,0.139-0.747,0.415-1.034c0.275-0.287,0.616-0.429,1.017-0.429
			c0.404,0,0.749,0.142,1.035,0.429c0.287,0.287,0.431,0.631,0.431,1.034v14.226c0,2.694-0.648,4.758-1.941,6.19
			c-1.296,1.432-3.142,2.148-5.538,2.148c-2.546,0-4.815-0.552-6.81-1.655c-0.382-0.233-0.574-0.557-0.574-0.971
			s0.122-0.759,0.366-1.034c0.244-0.276,0.499-0.414,0.764-0.414c0.266,0,0.503,0.042,0.716,0.127
			c1.612,0.807,3.362,1.209,5.251,1.209c3.247,0,4.869-1.729,4.869-5.188v-2.131c-1.506,1.612-3.321,2.418-5.441,2.418
			c-2.015,0-3.745-0.679-5.188-2.037c-1.676-1.548-2.514-3.628-2.514-6.237c0-2.61,0.838-4.689,2.514-6.239
			c1.442-1.356,3.199-2.036,5.267-2.036C198.326,122.243,200.113,123.048,201.619,124.661z M201.619,127.238
			c-0.593-0.615-1.272-1.161-2.037-1.639c-0.763-0.477-1.611-0.716-2.545-0.716s-1.729,0.117-2.387,0.351
			c-0.657,0.234-1.231,0.572-1.719,1.018c-1.04,0.977-1.559,2.398-1.559,4.265c0,2.736,1.092,4.498,3.277,5.282
			c0.657,0.234,1.453,0.35,2.387,0.35c1.548,0,3.076-0.784,4.582-2.354V127.238z"/>
		<path fill="#FFFFFF" d="M223.752,136.563c0.563,0,0.965-0.048,1.21-0.142c0.243-0.096,0.509-0.144,0.795-0.144
			c0.287,0,0.547,0.106,0.78,0.318c0.233,0.213,0.351,0.531,0.351,0.956c0,0.424-0.213,0.731-0.637,0.922
			c-0.912,0.424-1.691,0.636-2.339,0.636c-0.647,0-1.236-0.031-1.767-0.096c-0.529-0.063-1.039-0.243-1.527-0.541
			c-1.167-0.679-1.75-1.867-1.75-3.564v-9.866h-2.259c-0.404,0-0.605-0.201-0.605-0.604c0-0.191,0.096-0.372,0.287-0.542
			l4.327-4.232c0.191-0.191,0.372-0.287,0.542-0.287c0.168,0,0.312,0.064,0.428,0.191c0.117,0.128,0.176,0.276,0.176,0.446v2.546
			h3.597c0.36,0,0.657,0.117,0.89,0.35s0.35,0.529,0.35,0.891c0,0.361-0.117,0.657-0.35,0.892c-0.233,0.233-0.53,0.349-0.89,0.349
			h-3.597v9.611c0,0.807,0.243,1.358,0.732,1.654C222.771,136.479,223.189,136.563,223.752,136.563z"/>
		<path fill="#FFFFFF" d="M232.934,125.234c1.484-1.994,3.15-2.991,4.996-2.991h0.159c0.403,0,0.737,0.138,1.003,0.414
			c0.265,0.276,0.396,0.62,0.396,1.034s-0.138,0.742-0.413,0.986c-0.275,0.245-0.625,0.366-1.05,0.366h-0.159
			c-1.061,0-2.01,0.26-2.848,0.78c-0.839,0.52-1.533,1.193-2.084,2.02v9.675c0,0.403-0.144,0.744-0.431,1.019
			c-0.285,0.275-0.631,0.414-1.032,0.414c-0.404,0-0.744-0.139-1.019-0.414c-0.277-0.275-0.414-0.616-0.414-1.019v-13.653
			c0-0.402,0.137-0.747,0.414-1.034c0.274-0.287,0.614-0.429,1.019-0.429c0.401,0,0.747,0.142,1.032,0.429
			c0.287,0.287,0.431,0.631,0.431,1.034V125.234z"/>
		<path fill="#FFFFFF" d="M242.957,123.388c1.784-0.764,3.629-1.146,5.538-1.146c2.165,0,3.841,0.658,5.028,1.973
			c1.061,1.146,1.591,2.578,1.591,4.296v9.006c0,0.403-0.144,0.744-0.429,1.019c-0.287,0.275-0.631,0.414-1.035,0.414
			c-0.403,0-0.742-0.139-1.019-0.414c-0.274-0.275-0.413-0.616-0.413-1.019v-0.827c-0.573,0.594-1.341,1.145-2.307,1.654
			s-2.191,0.764-3.676,0.764c-1.464,0-2.683-0.425-3.66-1.273c-1.019-0.89-1.528-2.057-1.528-3.5c0-1.571,0.594-2.801,1.782-3.692
			c1.293-0.976,3.14-1.463,5.537-1.463h3.852v-0.254c0-1.421-0.35-2.435-1.05-3.04s-1.771-0.907-3.215-0.907
			c-1.23,0-2.64,0.255-4.231,0.764c-0.17,0.043-0.361,0.063-0.574,0.063c-0.212,0-0.435-0.111-0.667-0.333
			c-0.234-0.224-0.352-0.568-0.352-1.034C242.13,123.971,242.406,123.623,242.957,123.388z M243.944,134.017
			c0,1.699,1.124,2.546,3.373,2.546c0.997,0,1.926-0.244,2.785-0.731c0.858-0.488,1.563-1.039,2.116-1.654v-2.674h-3.469
			c-1.506,0-2.685,0.191-3.532,0.573C244.369,132.458,243.944,133.104,243.944,134.017z"/>
		<path fill="#FFFFFF" d="M270.485,123.229c0.256-0.551,0.722-0.827,1.4-0.827c0.34,0,0.647,0.142,0.923,0.429
			c0.275,0.287,0.414,0.557,0.414,0.812c0,0.339-0.053,0.636-0.159,0.891l-5.538,13.239c-0.148,0.318-0.376,0.594-0.684,0.827
			c-0.309,0.233-0.663,0.35-1.066,0.35h-0.317c-0.404,0-0.76-0.117-1.066-0.35c-0.309-0.233-0.536-0.509-0.684-0.827l-5.538-13.239
			c-0.106-0.255-0.159-0.53-0.159-0.827c0-0.296,0.138-0.588,0.414-0.875c0.274-0.287,0.583-0.429,0.923-0.429
			c0.679,0,1.145,0.276,1.4,0.827l4.869,12.348L270.485,123.229z"/>
		<path fill="#FFFFFF" d="M279.938,135.131c0.912,0.849,2.185,1.273,3.818,1.273c1.634,0,3.002-0.275,4.106-0.827
			c0.381-0.191,0.711-0.287,0.986-0.287c0.276,0,0.541,0.117,0.796,0.351c0.254,0.234,0.382,0.498,0.382,0.796
			c0,0.552-0.229,0.949-0.685,1.193c-0.455,0.244-0.864,0.452-1.225,0.62c-0.361,0.171-0.753,0.319-1.177,0.446
			c-0.955,0.276-2.057,0.414-3.31,0.414c-2.609,0-4.636-0.732-6.078-2.196c-1.443-1.464-2.165-3.543-2.165-6.237
			c0-2.333,0.605-4.274,1.814-5.823c1.358-1.739,3.288-2.61,5.793-2.61c2.376,0,4.252,0.806,5.632,2.418
			c1.293,1.506,1.941,3.373,1.941,5.601c0,0.403-0.133,0.742-0.397,1.019c-0.266,0.276-0.622,0.414-1.066,0.414h-10.789
			C278.484,133.137,279.024,134.283,279.938,135.131z M282.993,124.693c-1.889,0-3.269,0.838-4.139,2.514
			c-0.318,0.594-0.497,1.304-0.54,2.132h9.388c-0.085-1.506-0.636-2.694-1.654-3.564
			C285.199,125.054,284.181,124.693,282.993,124.693z"/>
		<path fill="#FFFFFF" d="M295.149,115.813c0.275-0.275,0.621-0.414,1.034-0.414c0.415,0,0.759,0.139,1.034,0.414
			c0.276,0.276,0.414,0.626,0.414,1.05v20.654c0,0.403-0.137,0.744-0.414,1.019c-0.275,0.275-0.619,0.414-1.034,0.414
			c-0.413,0-0.759-0.139-1.034-0.414c-0.276-0.275-0.414-0.616-0.414-1.019v-20.654C294.735,116.44,294.873,116.089,295.149,115.813
			z"/>
		<path fill="#FFFFFF" d="M314.784,135.131c0.912,0.849,2.184,1.273,3.819,1.273c1.632,0,3.001-0.275,4.104-0.827
			c0.382-0.191,0.71-0.287,0.987-0.287c0.275,0,0.54,0.117,0.795,0.351c0.254,0.234,0.381,0.498,0.381,0.796
			c0,0.552-0.227,0.949-0.684,1.193c-0.456,0.244-0.864,0.452-1.225,0.62c-0.361,0.171-0.753,0.319-1.177,0.446
			c-0.954,0.276-2.059,0.414-3.31,0.414c-2.609,0-4.636-0.732-6.078-2.196c-1.443-1.464-2.164-3.543-2.164-6.237
			c0-2.333,0.605-4.274,1.813-5.823c1.358-1.739,3.288-2.61,5.791-2.61c2.377,0,4.254,0.806,5.634,2.418
			c1.294,1.506,1.941,3.373,1.941,5.601c0,0.403-0.133,0.742-0.398,1.019c-0.265,0.276-0.619,0.414-1.066,0.414h-10.787
			C313.331,133.137,313.872,134.283,314.784,135.131z M317.838,124.693c-1.888,0-3.267,0.838-4.136,2.514
			c-0.317,0.594-0.499,1.304-0.541,2.132h9.388c-0.085-1.506-0.637-2.694-1.655-3.564
			C320.045,125.054,319.026,124.693,317.838,124.693z"/>
		<path fill="#FFFFFF" d="M329.933,123.388c1.781-0.764,3.627-1.146,5.536-1.146c2.164,0,3.84,0.658,5.029,1.973
			c1.06,1.146,1.591,2.578,1.591,4.296v9.006c0,0.403-0.143,0.744-0.43,1.019c-0.286,0.275-0.631,0.414-1.033,0.414
			c-0.404,0-0.744-0.139-1.018-0.414c-0.277-0.275-0.415-0.616-0.415-1.019v-0.827c-0.572,0.594-1.342,1.145-2.307,1.654
			c-0.966,0.509-2.191,0.764-3.676,0.764c-1.464,0-2.685-0.425-3.66-1.273c-1.019-0.89-1.527-2.057-1.527-3.5
			c0-1.571,0.594-2.801,1.782-3.692c1.294-0.976,3.14-1.463,5.538-1.463h3.85v-0.254c0-1.421-0.351-2.435-1.051-3.04
			c-0.699-0.605-1.771-0.907-3.213-0.907c-1.231,0-2.642,0.255-4.234,0.764c-0.169,0.043-0.361,0.063-0.571,0.063
			c-0.212,0-0.435-0.111-0.669-0.333c-0.233-0.224-0.349-0.568-0.349-1.034C329.105,123.971,329.38,123.623,329.933,123.388z
			 M330.918,134.017c0,1.699,1.125,2.546,3.373,2.546c0.997,0,1.926-0.244,2.784-0.731c0.86-0.488,1.566-1.039,2.117-1.654v-2.674
			h-3.469c-1.507,0-2.684,0.191-3.532,0.573C331.343,132.458,330.918,133.104,330.918,134.017z"/>
		<path fill="#FFFFFF" d="M352.145,136.436c2.355,0,3.532-0.753,3.532-2.259c0-0.467-0.234-0.822-0.7-1.066
			c-0.467-0.244-1.055-0.461-1.766-0.653c-0.711-0.191-1.48-0.387-2.309-0.589c-0.827-0.201-1.596-0.481-2.307-0.843
			c-0.71-0.361-1.299-0.833-1.767-1.416c-0.466-0.583-0.699-1.299-0.699-2.148c0-0.849,0.128-1.58,0.381-2.196
			c0.256-0.615,0.638-1.146,1.146-1.591c1.125-0.955,2.684-1.432,4.678-1.432c1.592,0,3.129,0.266,4.615,0.795
			c0.297,0.106,0.525,0.276,0.685,0.509c0.158,0.234,0.238,0.494,0.238,0.779c0,0.287-0.122,0.557-0.366,0.812
			c-0.244,0.254-0.483,0.382-0.716,0.382c-0.234,0-0.521-0.053-0.859-0.159c-1.019-0.319-2.132-0.478-3.341-0.478
			c-1.21,0-2.128,0.213-2.754,0.637c-0.625,0.424-0.938,0.934-0.938,1.527c0,0.594,0.239,1.034,0.716,1.321
			c0.478,0.286,1.066,0.525,1.767,0.716c0.7,0.19,1.469,0.381,2.307,0.572c0.838,0.191,1.606,0.457,2.307,0.796
			c1.656,0.849,2.483,2.163,2.483,3.945c0,1.358-0.51,2.461-1.528,3.31c-1.103,0.934-2.64,1.4-4.615,1.4
			c-2.143,0-4.073-0.477-5.792-1.432c-0.361-0.254-0.542-0.573-0.542-0.955c0-0.381,0.117-0.704,0.352-0.971
			c0.231-0.264,0.487-0.397,0.763-0.397c0.276,0,0.604,0.085,0.987,0.255C349.333,136.16,350.681,136.436,352.145,136.436z"/>
		<path fill="#FFFFFF" d="M365.574,117.628c0,0.446-0.159,0.827-0.477,1.146c-0.319,0.318-0.7,0.477-1.146,0.477h-0.191
			c-0.445,0-0.828-0.159-1.146-0.477c-0.318-0.319-0.477-0.7-0.477-1.146v-0.127c0-0.446,0.159-0.828,0.477-1.146
			s0.7-0.477,1.146-0.477h0.191c0.446,0,0.827,0.159,1.146,0.477c0.318,0.318,0.477,0.7,0.477,1.146V117.628z M362.806,122.815
			c0.274-0.276,0.62-0.414,1.034-0.414s0.759,0.138,1.033,0.414c0.276,0.276,0.414,0.625,0.414,1.049v13.653
			c0,0.403-0.138,0.744-0.414,1.019c-0.274,0.275-0.619,0.414-1.033,0.414s-0.76-0.139-1.034-0.414
			c-0.276-0.275-0.414-0.616-0.414-1.019v-13.653C362.392,123.44,362.529,123.092,362.806,122.815z"/>
		<path fill="#FFFFFF" d="M374.039,135.131c0.912,0.849,2.185,1.273,3.817,1.273c1.634,0,3.003-0.275,4.106-0.827
			c0.381-0.191,0.711-0.287,0.986-0.287c0.276,0,0.542,0.117,0.796,0.351c0.254,0.234,0.382,0.498,0.382,0.796
			c0,0.552-0.229,0.949-0.685,1.193c-0.456,0.244-0.864,0.452-1.225,0.62c-0.361,0.171-0.753,0.319-1.177,0.446
			c-0.955,0.276-2.058,0.414-3.31,0.414c-2.609,0-4.635-0.732-6.078-2.196c-1.443-1.464-2.165-3.543-2.165-6.237
			c0-2.333,0.604-4.274,1.814-5.823c1.358-1.739,3.288-2.61,5.792-2.61c2.376,0,4.253,0.806,5.632,2.418
			c1.293,1.506,1.941,3.373,1.941,5.601c0,0.403-0.132,0.742-0.397,1.019c-0.265,0.276-0.621,0.414-1.066,0.414h-10.789
			C372.585,133.137,373.126,134.283,374.039,135.131z M377.094,124.693c-1.889,0-3.268,0.838-4.138,2.514
			c-0.318,0.594-0.497,1.304-0.54,2.132h9.388c-0.085-1.506-0.636-2.694-1.654-3.564
			C379.301,125.054,378.282,124.693,377.094,124.693z"/>
		<path fill="#FFFFFF" d="M391.479,125.234c1.484-1.994,3.151-2.991,4.996-2.991h0.158c0.404,0,0.737,0.138,1.004,0.414
			c0.264,0.276,0.396,0.62,0.396,1.034s-0.139,0.742-0.413,0.986c-0.276,0.245-0.626,0.366-1.05,0.366h-0.16
			c-1.062,0-2.01,0.26-2.847,0.78c-0.839,0.52-1.534,1.193-2.084,2.02v9.675c0,0.403-0.144,0.744-0.431,1.019
			c-0.287,0.275-0.631,0.414-1.034,0.414s-0.742-0.139-1.018-0.414c-0.276-0.275-0.414-0.616-0.414-1.019v-13.653
			c0-0.402,0.138-0.747,0.414-1.034c0.276-0.287,0.615-0.429,1.018-0.429s0.747,0.142,1.034,0.429
			c0.287,0.287,0.431,0.631,0.431,1.034V125.234z"/>
	</g>
</g>
</svg>
