<?xml version="1.0" encoding="utf-8"?>
<!-- Generator: Adobe Illustrator 22.1.0, SVG Export Plug-In . SVG Version: 6.00 Build 0)  -->
<svg version="1.1" id="Layer_1" xmlns="http://www.w3.org/2000/svg" xmlns:xlink="http://www.w3.org/1999/xlink" x="0px" y="0px"
	 viewBox="0 0 657.2 442.6" style="enable-background:new 0 0 657.2 442.6;" xml:space="preserve">
<style type="text/css">
	.st0{fill:#333333;}
	.st1{fill:#227FBB;}
	.st2{fill:none;}
	.st3{fill:url(#SVGID_1_);}
	.st4{fill:url(#SVGID_2_);}
	.st5{fill:url(#SVGID_3_);}
</style>
<path id="php_1_" class="st0" d="M52.7,67.7L2,318.9h53l13.9-68.7h46.4c32,0,53.5-7.1,73.9-23.6c19.8-16.1,33.1-38.7,38.3-64.9
	c7.1-35,0.6-61.9-18.6-78.4c-13.7-12.4-28.1-15.9-64-15.9H52.7V67.7z M97.7,106.6h36.3c32.5,0,46.8,18.3,40.3,51.4
	c-7.2,35.7-29,53.3-65.3,53.3H76.6L97.7,106.6z M330.7,0h-53l-50.4,250.3h52.9l29-143.7h42.7c30.5,0,36.6,8.6,29.6,39.8l-21,103.9
	h53l23-114.1c9.2-49.9-9.2-69.8-65.2-68.7H317L330.7,0z M478.2,67.7l-50.7,251.3h53l13.9-68.7H541c32,0,53.5-7.1,73.9-23.6
	c19.8-16.1,33.1-38.7,38.3-64.9c7.1-35,0.6-61.9-18.6-78.4c-13.7-12.4-28.1-15.7-64-15.7H478.2L478.2,67.7z M523.4,106.6h36.3
	c32.5,0,46.8,18.3,40.3,51.4c-7.2,35.7-29,53.3-65.3,53.3h-32.5L523.4,106.6z"/>
<g>
	<g>
		<path class="st1" d="M128.9,293.5c-3.6-4.1-9.4-6.6-13.7-6.6c-4.4,0-8.7,1.9-8.7,6.6c0,8.7,25.3,6.6,25.3,24.3
			c0,17.7-16.1,24.2-27.5,24.2c-8.7,0-16.4-4-21.5-10.1l9-11.2c3.5,4.6,9.6,8.4,15.2,8.4c5.5,0,9.5-2.9,9.5-7.6
			c0-9.1-25.3-6.5-25.3-23.7c0-15.6,11.6-23.3,26.2-23.3c13,0,19.3,8.2,19.3,8.2L128.9,293.5z"/>
		<path class="st1" d="M199.3,275.2l-6,38.2c-2.9,17.7-12.2,28.5-31,28.5c-13.1,0-22.7-6-22.7-20c0-2.9,0.4-5.6,0.9-8.5l6-38.2h15
			l-6,38.2c-0.2,1.9-0.5,3.6-0.5,5.5c0,6,3.6,9.4,9.6,9.4c9.4,0,12.5-6.9,13.9-15l6-38.2h14.9V275.2z"/>
		<path class="st1" d="M243.9,293.5c-3.6-4.1-9.4-6.6-13.7-6.6s-8.7,1.9-8.7,6.6c0,8.7,25.3,6.6,25.3,24.3
			c0,17.7-16.1,24.2-27.5,24.2c-8.7,0-16.4-4-21.5-10.1l9-11.2c3.5,4.6,9.6,8.4,15.2,8.4s9.5-2.9,9.5-7.6c0-9.1-25.3-6.5-25.3-23.7
			c0-15.6,11.6-23.3,26.2-23.3c13,0,19.3,8.2,19.3,8.2L243.9,293.5z"/>
		<path class="st1" d="M293.7,293.5c-3.6-4.1-9.4-6.6-13.7-6.6s-8.7,1.9-8.7,6.6c0,8.7,25.3,6.6,25.3,24.3
			c0,17.7-16.1,24.2-27.5,24.2c-8.7,0-16.4-4-21.5-10.1l9-11.2c3.5,4.6,9.6,8.4,15.2,8.4c5.5,0,9.5-2.9,9.5-7.6
			c0-9.1-25.3-6.5-25.3-23.7c0-15.6,11.6-23.3,26.2-23.3c13,0,19.3,8.2,19.3,8.2L293.7,293.5z"/>
		<path class="st1" d="M352.7,275.2l-2,12.5h-26.1l-2.1,13.1h24.6l-2,12.5h-24.6l-2.4,15h27l-2,12.5h-41.8l10.4-65.7L352.7,275.2
			L352.7,275.2z"/>
		<path class="st1" d="M416.5,275.2l-24.6,31.6l15.6,34h-17.8l-9.1-24.2l-16.9,24.2h-17.8l26.3-34l-14.7-31.6h17.7l8.2,21.5
			l15.1-21.5H416.5L416.5,275.2z"/>
	</g>
</g>
<g>
	
		<radialGradient id="SVGID_1_" cx="429.8312" cy="60.3217" r="270.4327" gradientTransform="matrix(1.8023 0 0 -1 -374.4984 444)" gradientUnits="userSpaceOnUse">
		<stop  offset="0" style="stop-color:#25A8E0"/>
		<stop  offset="1" style="stop-color:#2A3B8F"/>
	</radialGradient>
	<path class="st3" d="M0,359.7c0,0,0,76.8,164.3,80c131.6,2.6,347.8-89.5,483.1-36.6c0,0-59-60.5-223.8-32.3
		c-111.7,19.1-175.3,49.1-282.7,47.4C13.6,416.4,0,359.7,0,359.7z"/>
	
		<radialGradient id="SVGID_2_" cx="382.5499" cy="66.8889" r="187.4585" gradientTransform="matrix(1.8023 0 0 -1 -374.4984 444)" gradientUnits="userSpaceOnUse">
		<stop  offset="0" style="stop-color:#25A8E0"/>
		<stop  offset="1" style="stop-color:#2A3B8F"/>
	</radialGradient>
	<path class="st4" d="M21.1,372.1c16.2,14.9,70.6,50.8,201,26.5c56.4-10.5,99.5-24.2,143.3-34.2c-44.8,8.2-90.4,19.2-147.9,27.1
		C108.8,406.3,50.3,388.4,21.1,372.1z"/>
	
		<radialGradient id="SVGID_3_" cx="383.8634" cy="6.9118" r="197.8187" gradientTransform="matrix(1.8023 0 0 -1 -374.4984 444)" gradientUnits="userSpaceOnUse">
		<stop  offset="0" style="stop-color:#25A8E0"/>
		<stop  offset="1" style="stop-color:#2A3B8F"/>
	</radialGradient>
	<path class="st5" d="M654.2,434.5c-16.2-14.9-70.6-50.8-201-26.5c-56.4,10.5-99.5,24.2-143.3,34.2c44.8-8.2,90.4-19.2,147.9-27.1
		C566.4,400.3,625,418.2,654.2,434.5z"/>
</g>
</svg>
