<?xml version="1.0" encoding="utf-8"?>
<!-- Generator: Adobe Illustrator 22.1.0, SVG Export Plug-In . SVG Version: 6.00 Build 0)  -->
<svg version="1.1" id="Layer_1" xmlns="http://www.w3.org/2000/svg" xmlns:xlink="http://www.w3.org/1999/xlink" x="0px" y="0px"
	 viewBox="0 0 657.2 442.6" style="enable-background:new 0 0 657.2 442.6;" xml:space="preserve">
<style type="text/css">
	.st0{fill:#FFFFFF;}
	.st1{fill:#52ACDD;}
	.st2{fill:none;}
	.st3{fill:url(#SVGID_1_);}
	.st4{fill:url(#SVGID_2_);}
	.st5{fill:url(#SVGID_3_);}
</style>
<path id="php_1_" class="st0" d="M54.3,68.6L3.8,318.9h52.8l13.8-68.4h46.2c31.8,0,53.3-7.1,73.6-23.5c19.8-16,32.9-38.5,38.2-64.6
	c7.1-34.8,0.6-61.7-18.5-78.1c-13.7-12.3-28-15.8-63.8-15.8H54.3V68.6z M99.2,107.4h36.2c32.3,0,46.6,18.3,40.2,51.2
	c-7.2,35.6-28.8,53.1-65,53.1H78.2L99.2,107.4z M331.1,1.2h-52.8l-50.2,249.3h52.7l28.8-143.1h42.5c30.3,0,36.4,8.6,29.5,39.7
	l-20.9,103.4h52.8l22.9-113.6c9.2-49.7-9.2-69.5-64.9-68.4h-54L331.1,1.2z M478.1,68.6l-50.5,250.3h52.8l13.8-68.4h46.4
	c31.8,0,53.3-7.1,73.6-23.5c19.8-16,32.9-38.5,38.2-64.6c7.1-34.8,0.6-61.7-18.5-78.1c-13.7-12.3-28-15.7-63.8-15.7H478.1
	L478.1,68.6z M523.1,107.4h36.2c32.3,0,46.6,18.3,40.2,51.2c-7.2,35.6-28.8,53.1-65,53.1h-32.3L523.1,107.4z"/>
<g>
	<g>
		<path class="st1" d="M130.2,293.5c-3.6-4.1-9.3-6.6-13.7-6.6s-8.7,1.9-8.7,6.6c0,8.7,25.2,6.6,25.2,24.2s-16,24.1-27.4,24.1
			c-8.7,0-16.3-4-21.4-10.1l9-11.2c3.5,4.6,9.6,8.3,15.2,8.3c5.5,0,9.4-2.9,9.4-7.6c0-9.1-25.2-6.5-25.2-23.6
			c0-15.5,11.6-23.2,26.1-23.2c12.9,0,19.3,8.2,19.3,8.2L130.2,293.5z"/>
		<path class="st1" d="M200.4,275.3l-6,38c-2.9,17.7-12.2,28.3-30.8,28.3c-13.1,0-22.6-6-22.6-19.9c0-2.9,0.4-5.6,0.9-8.5l6-38h14.9
			l-6,38c-0.2,1.9-0.5,3.6-0.5,5.5c0,6,3.6,9.3,9.6,9.3c9.3,0,12.4-6.8,13.8-14.9l6-38h14.8V275.3z"/>
		<path class="st1" d="M244.7,293.5c-3.6-4.1-9.3-6.6-13.7-6.6c-4.4,0-8.7,1.9-8.7,6.6c0,8.7,25.2,6.6,25.2,24.2s-16,24.1-27.4,24.1
			c-8.7,0-16.3-4-21.4-10.1l9-11.2c3.5,4.6,9.6,8.3,15.2,8.3c5.6,0,9.4-2.9,9.4-7.6c0-9.1-25.2-6.5-25.2-23.6
			c0-15.5,11.6-23.2,26.1-23.2c12.9,0,19.3,8.2,19.3,8.2L244.7,293.5z"/>
		<path class="st1" d="M294.4,293.5c-3.6-4.1-9.3-6.6-13.7-6.6c-4.4,0-8.7,1.9-8.7,6.6c0,8.7,25.2,6.6,25.2,24.2s-16,24.1-27.4,24.1
			c-8.7,0-16.3-4-21.4-10.1l9-11.2c3.5,4.6,9.6,8.3,15.2,8.3c5.5,0,9.4-2.9,9.4-7.6c0-9.1-25.2-6.5-25.2-23.6
			c0-15.5,11.6-23.2,26.1-23.2c12.9,0,19.3,8.2,19.3,8.2L294.4,293.5z"/>
		<path class="st1" d="M353.2,275.3l-2,12.4h-26l-2.1,13.1h24.5l-2,12.4h-24.5l-2.4,14.9h26.9l-2,12.4h-41.6l10.3-65.4L353.2,275.3
			L353.2,275.3z"/>
		<path class="st1" d="M416.7,275.3l-24.5,31.5l15.5,33.8H390l-9.1-24.1l-16.8,24.1h-17.8l26.2-33.8l-14.7-31.5h17.7l8.2,21.4
			l15-21.4L416.7,275.3L416.7,275.3z"/>
	</g>
</g>
<line class="st2" x1="3.8" y1="374.3" x2="646.8" y2="374.3"/>
<g>
	<radialGradient id="SVGID_1_" cx="324.1875" cy="399.3881" r="229.6862" gradientUnits="userSpaceOnUse">
		<stop  offset="0" style="stop-color:#2581C4"/>
		<stop  offset="0.7219" style="stop-color:#52B4D3"/>
		<stop  offset="1" style="stop-color:#64C9D9"/>
	</radialGradient>
	<path class="st3" d="M1.8,359.5c0,0,0,76.5,163.6,79.7c131,2.6,346.4-89.1,481.1-36.4c0,0-58.8-60.3-222.9-32.2
		c-111.3,19-174.5,48.9-281.6,47.2C15.4,416,1.8,359.5,1.8,359.5z"/>
	<radialGradient id="SVGID_2_" cx="194.2703" cy="385.247" r="122.1445" gradientUnits="userSpaceOnUse">
		<stop  offset="0" style="stop-color:#2581C4"/>
		<stop  offset="0.7219" style="stop-color:#52B4D3"/>
		<stop  offset="1" style="stop-color:#64C9D9"/>
	</radialGradient>
	<path class="st4" d="M22.8,371.8C39,386.6,93.2,422.4,223,398.2c56.2-10.4,99.1-24.1,142.7-34.1c-44.6,8.2-90,19.1-147.3,27
		C110.2,405.9,51.9,388.1,22.8,371.8z"/>
	<radialGradient id="SVGID_3_" cx="481.953" cy="420.5606" r="122.1445" gradientUnits="userSpaceOnUse">
		<stop  offset="0" style="stop-color:#2581C4"/>
		<stop  offset="0.7219" style="stop-color:#52B4D3"/>
		<stop  offset="1" style="stop-color:#64C9D9"/>
	</radialGradient>
	<path class="st5" d="M653.4,434c-16.2-14.8-70.4-50.6-200.2-26.4c-56.2,10.4-99.1,24.1-142.7,34.1c44.6-8.2,90-19.1,147.3-27
		C566,399.9,624.3,417.7,653.4,434z"/>
</g>
</svg>
